<svg width="1280" height="720" xmlns="http://www.w3.org/2000/svg" xmlns:xlink="http://www.w3.org/1999/xlink" overflow="hidden"><g><rect x="0" y="0" width="1280" height="720" fill="#FFFFFF"/><path d="M237.5 354.5C237.5 342.35 247.574 332.5 260 332.5 272.426 332.5 282.5 342.35 282.5 354.5 282.5 366.65 272.426 376.5 260 376.5 247.574 376.5 237.5 366.65 237.5 354.5Z" stroke="#000000" stroke-width="2.66667" stroke-miterlimit="8" fill="#3B7D23" fill-rule="evenodd"/><text font-family="Times New Roman,Times New Roman_MSFontService,sans-serif" font-weight="400" font-size="24" transform="translate(253.702 362)">1</text><path d="M357.5 294.5C357.5 282.35 367.574 272.5 380 272.5 392.426 272.5 402.5 282.35 402.5 294.5 402.5 306.65 392.426 316.5 380 316.5 367.574 316.5 357.5 306.65 357.5 294.5Z" stroke="#000000" stroke-miterlimit="8" fill="#EDB9E7" fill-rule="evenodd"/><text font-family="Times New Roman,Times New Roman_MSFontService,sans-serif" font-weight="400" font-size="24" transform="translate(373.672 303)">2</text><path d="M357.5 396.5C357.5 384.35 367.574 374.5 380 374.5 392.426 374.5 402.5 384.35 402.5 396.5 402.5 408.65 392.426 418.5 380 418.5 367.574 418.5 357.5 408.65 357.5 396.5Z" stroke="#000000" stroke-miterlimit="8" fill="#EDB9E7" fill-rule="evenodd"/><text font-family="Times New Roman,Times New Roman_MSFontService,sans-serif" font-weight="400" font-size="24" transform="translate(373.672 405)">3</text><path d="M458.5 264.5C458.5 252.35 468.574 242.5 481 242.5 493.426 242.5 503.5 252.35 503.5 264.5 503.5 276.65 493.426 286.5 481 286.5 468.574 286.5 458.5 276.65 458.5 264.5Z" stroke="#000000" stroke-width="2.66667" stroke-miterlimit="8" fill="#3B7D23" fill-rule="evenodd"/><text font-family="Times New Roman,Times New Roman_MSFontService,sans-serif" font-weight="400" font-size="24" transform="translate(474.826 273)">7</text><path d="M434.5 346.5C434.5 334.35 444.574 324.5 457 324.5 469.426 324.5 479.5 334.35 479.5 346.5 479.5 358.65 469.426 368.5 457 368.5 444.574 368.5 434.5 358.65 434.5 346.5Z" stroke="#000000" stroke-miterlimit="8" fill="#EDB9E7" fill-rule="evenodd"/><text font-family="Times New Roman,Times New Roman_MSFontService,sans-serif" font-weight="400" font-size="24" transform="translate(450.175 354)">4</text><path d="M534.5 374C534.5 362.126 544.574 352.5 557 352.5 569.426 352.5 579.5 362.126 579.5 374 579.5 385.874 569.426 395.5 557 395.5 544.574 395.5 534.5 385.874 534.5 374Z" stroke="#000000" stroke-miterlimit="8" fill="#EDB9E7" fill-rule="evenodd"/><text font-family="Times New Roman,Times New Roman_MSFontService,sans-serif" font-weight="400" font-size="24" transform="translate(550.329 382)">6</text><path d="M532.5 272.5C532.5 260.35 542.797 250.5 555.5 250.5 568.203 250.5 578.5 260.35 578.5 272.5 578.5 284.65 568.203 294.5 555.5 294.5 542.797 294.5 532.5 284.65 532.5 272.5Z" stroke="#000000" stroke-width="2.66667" stroke-miterlimit="8" fill="#3B7D23" fill-rule="evenodd"/><text font-family="Times New Roman,Times New Roman_MSFontService,sans-serif" font-weight="400" font-size="24" transform="translate(548.843 281)">5</text><path d="M597.5 308C597.5 296.126 607.797 286.5 620.5 286.5 633.203 286.5 643.5 296.126 643.5 308 643.5 319.874 633.203 329.5 620.5 329.5 607.797 329.5 597.5 319.874 597.5 308Z" stroke="#000000" stroke-width="2.66667" stroke-miterlimit="8" fill="#3B7D23" fill-rule="evenodd"/><text font-family="Times New Roman,Times New Roman_MSFontService,sans-serif" font-weight="400" font-size="24" transform="translate(614.027 316)">8</text><path d="M0.0637196-0.663615 7.08508 0.0105691 13.9381 1.9305 20.3411 4.91124 26.08 8.77873 30.9393 13.3632 34.6881 18.4834 36.0928 21.2218 37.129 24.0219 37.7737 26.8773 37.9915 29.7123 38.2057 32.499 38.1913 32.4033 38.8155 35.1682 38.7905 35.0836 39.7974 37.8049 39.7654 37.732 41.1278 40.3879 41.0725 40.2983 44.7541 45.3267 44.6737 45.2357 49.449 49.7409 49.364 49.6729 55.0141 53.4805 54.9229 53.429 61.2291 56.3646 61.1276 56.3271 67.8712 58.2164 67.755 58.1947 74.7174 58.8632 74.5899 60.1904 67.5686 59.5163 60.7156 57.5963 54.3125 54.6156 48.5736 50.7481 43.7144 46.1636 39.9655 41.0434 38.5608 38.3051 37.5247 35.5049 36.88 32.6496 36.6621 29.8145 36.448 27.0278 36.4624 27.1236 35.8381 24.3587 35.8632 24.4432 34.8562 21.7219 34.8883 21.7948 33.5259 19.139 33.5811 19.2285 29.8995 14.2001 29.9799 14.2912 25.2047 9.786 25.2896 9.85393 19.6396 6.0463 19.7308 6.09784 13.4246 3.16219 13.5261 3.19975 6.78248 1.31047 6.89861 1.33213-0.0637196 0.663615ZM-0.382318 3.98169C-2.58134 3.77054-4.19284 1.81671-3.98169-0.382318-3.77054-2.58134-1.81671-4.19284 0.382318-3.98169 2.58134-3.77054 4.19284-1.81671 3.98169 0.382318 3.77054 2.58134 1.81671 4.19284-0.382318 3.98169ZM75.036 55.5451C77.235 55.7563 78.8465 57.7101 78.6353 59.9091 78.4242 62.1082 76.4704 63.7197 74.2713 63.5085 72.0723 63.2974 70.4608 61.3435 70.672 59.1445 70.8831 56.9455 72.8369 55.334 75.036 55.5451Z" transform="matrix(1 0 0 -1 282.5 354.027)"/><path d="M282.546 353.835 289.551 354.318 296.378 355.689 302.764 357.822 308.496 360.593 313.361 363.886 317.127 367.576 318.552 369.568 319.607 371.614 320.269 373.715 320.49 375.78 320.704 377.779 320.677 377.65 321.301 379.634 321.258 379.528 322.265 381.48 322.215 381.398 323.577 383.303 323.501 383.215 327.183 386.822 327.09 386.746 331.865 389.978 331.782 389.93 337.432 392.661 337.353 392.629 343.659 394.735 343.579 394.714 350.323 396.069 350.237 396.058 357.2 396.537 357.108 397.867 350.102 397.385 343.276 396.013 336.89 393.88 331.158 391.109 326.293 387.817 322.526 384.126 321.102 382.134 320.047 380.088 319.385 377.987 319.164 375.922 318.95 373.923 318.977 374.052 318.353 372.069 318.396 372.174 317.389 370.222 317.439 370.304 316.077 368.399 316.153 368.488 312.471 364.88 312.564 364.956 307.789 361.724 307.872 361.772 302.222 359.041 302.301 359.073 295.995 356.967 296.075 356.989 289.331 355.633 289.417 355.645 282.454 355.165ZM282.225 358.491C280.021 358.339 278.358 356.429 278.51 354.225 278.661 352.021 280.571 350.358 282.775 350.51 284.979 350.661 286.642 352.571 286.491 354.775 286.339 356.979 284.429 358.642 282.225 358.491ZM357.429 393.212C359.633 393.364 361.296 395.273 361.144 397.477 360.992 399.681 359.083 401.345 356.879 401.193 354.675 401.041 353.011 399.131 353.163 396.927 353.315 394.724 355.225 393.06 357.429 393.212Z"/><path d="M0.0425429-0.665308 5.29033-0.329739 10.412 0.62584 15.2046 2.11161 19.5099 4.04385 23.1711 6.34418 26.0302 8.9447 27.9155 11.7941 28.5696 14.6783 29.1967 17.4436 29.1025 17.2232 30.8747 19.9017 30.7673 19.7764 33.5211 22.2811 33.4272 22.2098 36.9989 24.4539 36.9172 24.4102 41.1433 26.3068 41.0677 26.2783 45.7846 27.7406 45.7095 27.722 50.7535 28.6631 50.6738 28.6531 55.8814 28.9861 55.7963 30.3168 50.5485 29.9812 45.4268 29.0256 40.6343 27.5398 36.3289 25.6076 32.6677 23.3073 29.8087 20.7068 27.9233 17.8573 27.2693 14.9732 26.6422 12.2078 26.7363 12.4283 24.9641 9.74979 25.0715 9.8751 22.3177 7.37036 22.4117 7.44167 18.8399 5.19754 18.9216 5.24127 14.6956 3.34461 14.7711 3.37316 10.0543 1.91086 10.1294 1.92945 5.08535 0.988358 5.16508 0.998308-0.0425429 0.665308ZM-0.255258 3.99185C-2.45989 3.85087-4.13282 1.94938-3.99185-0.255258-3.85087-2.45989-1.94938-4.13282 0.255258-3.99185 2.45989-3.85087 4.13282-1.94938 3.99185 0.255258 3.85087 2.45989 1.94938 4.13282-0.255258 3.99185ZM56.0941 25.6596C58.2987 25.8006 59.9717 27.7021 59.8307 29.9067 59.6897 32.1113 57.7882 33.7843 55.5836 33.6433 53.379 33.5023 51.706 31.6008 51.847 29.3962 51.988 27.1916 53.8895 25.5186 56.0941 25.6596Z" transform="matrix(-1 1.22465e-16 1.22465e-16 1 458.339 264.5)"/><path d="M0.142481-0.651263 5.7613 0.578002 8.59619 2.09768 11.3131 4.11665 13.9254 6.60718 16.4163 9.52829 18.7676 12.8404 20.9658 16.5142 24.7895 24.7338 27.7377 33.9084 29.6346 43.7166 30.303 53.8017 28.9726 53.8899 28.3069 43.8464 28.3176 43.9289 26.4363 34.2009 26.4561 34.2782 23.5328 25.1812 23.5631 25.2585 19.7715 17.108 19.8039 17.1691 17.6368 13.5474 17.6652 13.591 15.3462 10.3242 15.3825 10.3709 12.9332 7.49851 12.9805 7.54846 10.4226 5.10989 10.485 5.16247 7.84031 3.19715 7.92297 3.24962 5.21317 1.79699 5.38566 1.86069-0.142481 0.651263ZM-0.690004 3.94004C-2.86603 3.55896-4.32112 1.48602-3.94004-0.690004-3.55896-2.86603-1.48602-4.32112 0.690004-3.94004 2.86603-3.55896 4.32112-1.48602 3.94004 0.690004 3.55896 2.86603 1.48602 4.32112-0.690004 3.94004ZM33.629 53.5812C33.7751 55.7855 32.1066 57.6909 29.9023 57.837 27.698 57.9831 25.7927 56.3146 25.6466 54.1103 25.5004 51.906 27.1689 50.0006 29.3733 49.8545 31.5776 49.7084 33.4829 51.3769 33.629 53.5812Z" transform="matrix(1.83697e-16 1 1 -1.83697e-16 380.5 316.5)"/><path d="M315.252 328.466 317.568 318.087 314.013 317.294 322.709 311.771 328.232 320.467 324.677 319.674 322.362 330.052Z" fill-rule="evenodd"/><path d="M323.452 368.884 326.525 379.063 330.012 378.011 325.143 387.09 316.065 382.221 319.552 381.169 316.479 370.989Z" fill-rule="evenodd"/><path d="M433.496 279.506 426.733 287.712 429.544 290.028 419.29 291.017 418.301 280.763 421.112 283.079 427.874 274.873Z" fill-rule="evenodd"/><path d="M392.35 327.429 401.237 333.267 403.237 330.223 405.326 340.31 395.239 342.399 397.238 339.355 388.351 333.517Z" fill-rule="evenodd"/><path d="M0.0139714-0.66652 12.2765-0.409477 24.1676 0.317794 35.2867 1.44779 40.4442 2.14389 45.2635 2.91558 49.7009 3.75531 53.7099 4.65538 57.2452 5.60875 60.2633 6.60993 62.7255 7.65782 64.6026 8.76528 65.8708 9.9915 66.2998 11.2103 66.6766 12.2806 66.5112 12.0227 67.6094 13.0847 67.4847 12.9897 69.2564 14.0349 69.1787 13.9957 71.5756 15.0158 71.5245 14.9964 74.4986 15.983 74.4623 15.9721 77.9655 16.9168 77.9379 16.91 81.9221 17.8045 81.9 17.7999 86.3171 18.6358 86.2986 18.6326 91.1004 19.4015 91.0842 19.3991 96.2227 20.0926 96.201 20.09 107.296 21.2176 107.269 21.2154 119.133 21.941 119.107 21.9399 131.356 22.1967 131.328 23.5297 119.065 23.2727 107.174 22.5454 96.0553 21.4154 90.8977 20.7193 86.0784 19.9476 81.641 19.1079 77.632 18.2079 74.0968 17.2545 71.0787 16.2533 68.6165 15.2055 66.7393 14.098 65.4712 12.8718 65.0421 11.653 64.6654 10.5827 64.8308 10.8406 63.7325 9.77864 63.8572 9.87356 62.0855 8.82835 62.1632 8.86759 59.7663 7.8475 59.8175 7.86684 56.8434 6.88024 56.8797 6.89115 53.3765 5.94642 53.404 5.95322 49.4198 5.05873 49.4419 5.06329 45.0248 4.22741 45.0434 4.23065 40.2415 3.46175 40.2578 3.46415 35.1192 2.7706 35.141 2.77318 24.0462 1.64565 24.0729 1.64782 12.2085 0.922186 12.2352 0.923283-0.0139714 0.66652ZM-0.0838283 3.99912C-2.29248 3.95282-4.04542 2.12483-3.99912-0.0838283-3.95282-2.29248-2.12483-4.04542 0.0838283-3.99912 2.29248-3.95282 4.04542-2.12483 3.99912 0.0838283 3.95282 2.29248 2.12483 4.04542-0.0838283 3.99912ZM131.426 18.8641C133.634 18.9104 135.387 20.7384 135.341 22.947 135.295 25.1557 133.467 26.9086 131.258 26.8623 129.049 26.816 127.297 24.988 127.343 22.7794 127.389 20.5707 129.217 18.8178 131.426 18.8641Z" transform="matrix(1 0 0 -1 402.5 396.363)"/><path d="M479.541 345.835 484.693 346.149 489.721 347.044 494.427 348.436 498.655 350.246 502.251 352.402 505.063 354.842 506.923 357.524 507.568 360.237 508.184 362.828 508.083 362.603 509.823 365.112 509.712 364.989 512.417 367.336 512.323 367.267 515.83 369.37 515.75 369.329 519.9 371.106 519.827 371.08 524.459 372.45 524.387 372.433 529.341 373.314 529.265 373.305 534.379 373.617 534.298 374.948 529.145 374.634 524.117 373.739 519.411 372.347 515.184 370.537 511.587 368.381 508.775 365.941 506.916 363.259 506.271 360.546 505.655 357.954 505.755 358.18 504.015 355.671 504.126 355.794 501.421 353.447 501.516 353.516 498.008 351.413 498.088 351.454 493.938 349.677 494.011 349.703 489.379 348.333 489.451 348.35 484.498 347.468 484.574 347.478 479.459 347.165ZM479.256 350.493C477.051 350.358 475.373 348.462 475.507 346.256 475.642 344.051 477.539 342.373 479.744 342.507 481.949 342.642 483.627 344.539 483.493 346.744 483.358 348.949 481.462 350.627 479.256 350.493Z"/><path d="M457.494 387.053 466.295 381.086 464.251 378.072 474.368 380.013 472.427 390.13 470.383 387.116 461.582 393.082Z" fill-rule="evenodd"/><path d="M504.883 349.535 510.06 358.823 513.242 357.049 510.426 366.959 500.517 364.143 503.698 362.369 498.52 353.082Z" fill-rule="evenodd"/><path d="M0.00403931-0.666654 10.5503-0.602754 15.4066-0.529354 19.7581-0.434144 23.4389-0.321394 26.2853-0.195173 28.1637-0.0567678 28.8537 0.0915854 29.4987 0.230239 29.4075 0.217149 31.2302 0.351448 31.2107 0.3503 34.0428 0.475887 34.0337 0.475545 37.707 0.588065 37.7012 0.587912 42.0475 0.68301 42.043 0.682927 46.894 0.756246 46.888 0.756182 57.4312 0.820065 57.4231 2.15337 46.8769 2.08947 42.0206 2.01607 37.6691 1.92086 33.9883 1.80811 31.1419 1.68189 29.2635 1.54349 28.5735 1.39513 27.9285 1.25648 28.0197 1.26957 26.197 1.13527 26.2165 1.13642 23.3844 1.01083 23.3935 1.01117 19.7202 0.898654 19.726 0.898807 15.3797 0.803709 15.3842 0.803793 10.5332 0.730473 10.5392 0.730537-0.00403931 0.666654ZM-0.0242358 3.99993C-2.23333 3.98654-4.01331 2.18486-3.99993-0.0242358-3.98654-2.23333-2.18486-4.01331 0.0242358-3.99993 2.23333-3.98654 4.01331-2.18486 3.99993 0.0242358 3.98654 2.23333 2.18486 4.01331-0.0242358 3.99993ZM57.4514-2.51321C59.6605-2.49982 61.4405-0.698144 61.4271 1.51095 61.4137 3.72005 59.6121 5.50003 57.403 5.48665 55.1939 5.47326 53.4139 3.67158 53.4273 1.46248 53.4406-0.746615 55.2423-2.52659 57.4514-2.51321Z" transform="matrix(-1.83697e-16 -1 -1 1.83697e-16 556.987 351.927)"/><path d="M551.75 329 551.75 318.5 548 318.5 555.5 311 563 318.5 559.25 318.5 559.25 329Z" fill-rule="evenodd"/><path d="M0.0853671-0.661178 7.79931 0.334796 11.6424 1.5506 15.3675 3.1843 18.9652 5.20855 22.4182 7.59838 28.7041 13.2945 34.0238 20.0433 38.1201 27.5664 39.6454 31.5647 40.7701 35.6517 41.4681 39.809 41.7057 43.9653 40.3745 44.0414 40.1391 39.9215 40.1472 39.9938 39.4608 35.9061 39.4755 35.9726 38.3684 31.9493 38.3883 32.0101 36.8903 28.0835 36.9277 28.1647 32.8798 20.7305 32.9418 20.8244 27.6915 14.1637 27.7674 14.2451 21.5553 8.61572 21.6235 8.6699 18.2319 6.32255 18.2844 6.35538 14.7425 4.36255 14.8017 4.39207 11.1395 2.78599 11.2062 2.81108 7.45385 1.62397 7.56957 1.64954-0.0853671 0.661178ZM-0.280955 3.99012C-2.48464 3.83495-4.14529 1.92273-3.99012-0.280955-3.83495-2.48464-1.92273-4.14529 0.280955-3.99012 2.48464-3.83495 4.14529-1.92273 3.99012 0.280955 3.83495 2.48464 1.92273 4.14529-0.280955 3.99012ZM45.0336 43.7751C45.1596 45.9807 43.4739 47.8708 41.2683 47.9968 39.0628 48.1229 37.1727 46.4371 37.0466 44.2316 36.9206 42.026 38.6063 40.1359 40.8119 40.0099 43.0174 39.8838 44.9075 41.5696 45.0336 43.7751Z" transform="matrix(1 0 0 -1 579.5 373.503)"/><path d="M604.167 358.21 610.039 349.345 607.003 347.333 617.099 345.283 619.149 355.379 616.112 353.367 610.24 362.232Z" fill-rule="evenodd"/><path d="M782.5 255.5C782.5 243.35 792.126 233.5 804 233.5 815.874 233.5 825.5 243.35 825.5 255.5 825.5 267.65 815.874 277.5 804 277.5 792.126 277.5 782.5 267.65 782.5 255.5Z" stroke="#000000" stroke-width="2.66667" stroke-miterlimit="8" fill="#3B7D23" fill-rule="evenodd"/><path d="M782.5 317.5C782.5 305.35 792.126 295.5 804 295.5 815.874 295.5 825.5 305.35 825.5 317.5 825.5 329.65 815.874 339.5 804 339.5 792.126 339.5 782.5 329.65 782.5 317.5Z" stroke="#000000" stroke-miterlimit="8" fill="#EDB9E7" fill-rule="evenodd"/><path d="M798 378.5C798 374.91 800.91 372 804.5 372 808.09 372 811 374.91 811 378.5 811 382.09 808.09 385 804.5 385 800.91 385 798 382.09 798 378.5Z" fill-rule="evenodd"/><path d="M778.5 438.5 835.342 438.5" stroke="#000000" stroke-width="1.33333" stroke-miterlimit="8" fill="none" fill-rule="evenodd"/><path d="M796 433.75 805.5 433.75 805.5 430 813 437.5 805.5 445 805.5 441.25 796 441.25Z" fill-rule="evenodd"/><text font-family="Times New Roman,Times New Roman_MSFontService,sans-serif" font-weight="700" font-size="24" transform="translate(844.164 262)">Boundary conditions</text><text font-family="Times New Roman,Times New Roman_MSFontService,sans-serif" font-weight="700" font-size="24" transform="translate(844.164 323)">Operations</text><text font-family="Times New Roman,Times New Roman_MSFontService,sans-serif" font-weight="700" font-size="24" transform="translate(844.164 387)">Connection port</text><text font-family="Times New Roman,Times New Roman_MSFontService,sans-serif" font-weight="700" font-size="24" transform="translate(844.164 446)">Direction of connection</text></g></svg>